<svg xmlns="http://www.w3.org/2000/svg" version="1.1" xmlns:xlink="http://www.w3.org/1999/xlink" xmlns:svgjs="http://svgjs.dev/svgjs" width="1500" height="772" viewBox="0 0 1500 772"><g transform="matrix(1,0,0,1,0.9771444348212981,0.16030072103615112)"><svg viewBox="0 0 305 157" data-background-color="#ffffff" preserveAspectRatio="xMidYMid meet" height="772" width="1500" xmlns="http://www.w3.org/2000/svg" xmlns:xlink="http://www.w3.org/1999/xlink"><g id="tight-bounds" transform="matrix(1,0,0,1,-0.19868603508032834,-0.03260001710191318)"><svg viewBox="0 0 305.39737207016066 157.06520003420383" height="157.06520003420383" width="305.39737207016066"><g><svg viewBox="0 0 305.39737207016066 157.06520003420383" height="157.06520003420383" width="305.39737207016066"><g><svg viewBox="0 0 305.39737207016066 157.06520003420383" height="157.06520003420383" width="305.39737207016066"><g><path d="M0 157.065v-157.065h305.397v157.065z" fill="#729343" stroke="transparent" stroke-width="0" rx="0%" data-fill-palette-color="tertiary"></path><path d="M3.283 153.782v-150.499h298.831v150.499z" fill="#ffffff" stroke="transparent" stroke-width="0" rx="0%" data-fill-palette-color="quaternary"></path><path d="M9.85 147.215v-137.365h285.697v137.365z" fill="#729343" stroke="transparent" stroke-width="0" data-fill-palette-color="tertiary"></path></g><g transform="matrix(1,0,0,1,19.69974,19.69974)" id="textblocktransform"><svg viewBox="0 0 265.9978920701607 117.66572003420382" height="117.66572003420382" width="265.9978920701607" id="textblock"><g><svg viewBox="0 0 265.9978920701607 100.57561757280003" height="100.57561757280003" width="265.9978920701607"><g transform="matrix(1,0,0,1,0,0)"><svg width="265.9978920701607" viewBox="2.5 -35.15 94.55 35.75" height="100.57561757280003" data-palette-color="#ffffff"><path d="M20.45-31.35L20.45-31.35Q14.35-31.35 10.9-27.25 7.45-23.15 7.45-16.05L7.45-16.05Q7.45-10.3 10.48-6.7 13.5-3.1 18.23-3.1 22.95-3.1 27-4.9L27-4.9 27-13.8 19.6-13.8 19.6-17.45 31.25-17.45 31.25-2.75Q24.7 0.6 17.9 0.6L17.9 0.6Q12.95 0.6 9.38-1.83 5.8-4.25 4.15-7.95 2.5-11.65 2.5-16.05L2.5-16.05Q2.5-24.45 7.4-29.8 12.3-35.15 20.45-35.15L20.45-35.15Q24.45-35.15 29.35-33.55L29.35-33.55 28.1-30.05Q24.05-31.35 20.45-31.35ZM64.4 0L59.65 0 55.7-11.25 42.65-11.25 38.7 0 34.25 0 46.75-34.55 51.9-34.55 64.4 0ZM43.95-14.9L54.45-14.9 50.1-27.35 49.3-30.15 49.1-30.15 48.3-27.35 43.95-14.9ZM79.1 0L68.65 0 68.65-34.55 81.65-34.55Q85.4-34.55 88.4-33.2 91.4-31.85 93.25-29.6L93.25-29.6Q97.05-24.9 97.05-18.5L97.05-18.5Q97.05-10.4 92.15-5.2 87.25 0 79.1 0L79.1 0ZM81.1-30.75L81.1-30.75 72.95-30.75 72.95-3.8 79.1-3.8Q85.3-3.8 88.7-7.7 92.1-11.6 92.1-18.5L92.1-18.5Q92.1-23.65 89.22-27.2 86.35-30.75 81.1-30.75Z" opacity="1" transform="matrix(1,0,0,1,0,0)" fill="#ffffff" class="wordmark-text-0" data-fill-palette-color="quaternary" id="text-0"></path></svg></g></svg></g><g transform="matrix(1,0,0,1,0,107.14219757280003)"><svg viewBox="0 0 265.9978920701607 10.523522461403791" height="10.523522461403791" width="265.9978920701607"><g transform="matrix(1,0,0,1,0,0)"><svg width="265.9978920701607" viewBox="4.5 -37.1 1215.68 48.1" height="10.523522461403791" data-palette-color="#ffffff"><path d="M24.95 0L4.5 0 5-4 5-31 4.5-35 24.95-35 24.95-30.6 21.95-31.1 9.25-31.1 9.25-19.65 23.4-19.65 23.4-15.55 20.4-15.95 9.25-15.95 9.25-3.9 21.95-3.9 24.95-4.4 24.95 0ZM34.55 0L29.65 0 38.1-12.9 29.9-25.5 34.8-25.5 36.8-21.9 40.55-16.1 41.05-14.1 41.35-14.1 41.85-16.1 45.7-21.9 47.7-25.5 52.6-25.5 44.3-12.9 52.85 0 47.95 0 45.85-3.45 41.85-9.25 41.35-11.25 41.05-11.25 40.55-9.25 36.65-3.45 34.55 0ZM69.55 0.6L69.55 0.6Q68.3 0.6 67.37 0.45 66.45 0.3 65.84 0.1L65.84 0.1 60.9-4.05 60.9-7.1Q62.1-5.5 63.35-4.6 64.59-3.7 66-3.35 67.4-3 68.95-3L68.95-3Q73.59-3 75.32-5.5 77.05-8 77.05-12.5L77.05-12.5Q77.05-15.75 76.27-17.98 75.5-20.2 73.77-21.35 72.05-22.5 69.2-22.5L69.2-22.5Q67.15-22.5 65.57-21.95 64-21.4 62.82-20.48 61.65-19.55 60.7-18.45L60.7-18.45 60.7-21.65 65.9-25.4Q66.8-25.7 67.87-25.9 68.95-26.1 70.09-26.1L70.09-26.1Q72.9-26.1 75.47-24.73 78.05-23.35 79.7-20.4 81.34-17.45 81.34-12.75L81.34-12.75Q81.34-8.9 80.05-5.88 78.75-2.85 76.15-1.13 73.55 0.6 69.55 0.6ZM63.15 11L57.95 11 58.45 7 58.45-21.5 57.95-25.5 61.65-25.5 62.65-20.9 62.65 7 63.15 11ZM96.44-3.95L97.24-3.45 97.24 0Q96.74 0.25 96.09 0.43 95.44 0.6 94.39 0.6L94.39 0.6Q92.89 0.6 91.52 0.13 90.14-0.35 89.24-1.7 88.34-3.05 88.34-5.6L88.34-5.6 88.34-32.4 87.84-36.4 93.04-36.4 92.54-32.4 92.54-5.65Q92.54-4.55 93.07-3.98 93.59-3.4 94.74-3.4L94.74-3.4Q95.29-3.4 95.69-3.55 96.09-3.7 96.44-3.95L96.44-3.95ZM113.89 0.6L113.89 0.6Q110.89 0.6 108.14-0.7 105.39-2 103.67-4.95 101.94-7.9 101.94-12.75L101.94-12.75Q101.94-16.45 102.94-19 103.94-21.55 105.64-23.13 107.34-24.7 109.49-25.4 111.64-26.1 113.89-26.1L113.89-26.1Q116.14-26.1 118.29-25.4 120.44-24.7 122.14-23.13 123.84-21.55 124.84-19 125.84-16.45 125.84-12.75L125.84-12.75Q125.84-7.9 124.12-4.95 122.39-2 119.67-0.7 116.94 0.6 113.89 0.6ZM113.89-3L113.89-3Q117.44-3 119.49-5.2 121.54-7.4 121.54-12.85L121.54-12.85Q121.54-16.5 120.62-18.6 119.69-20.7 117.99-21.6 116.29-22.5 113.89-22.5L113.89-22.5Q111.49-22.5 109.79-21.6 108.09-20.7 107.17-18.6 106.24-16.5 106.24-12.85L106.24-12.85Q106.24-7.4 108.29-5.2 110.34-3 113.89-3ZM137.54 0L132.34 0 132.84-4 132.84-21.5 132.34-25.5 135.69-25.5 136.49-22.55 137.04-22.55 137.04-4 137.54 0ZM135.99-16.45L135.99-16.45 135.99-21.7 140.39-25.45Q142.19-26.1 144.09-26.1L144.09-26.1Q144.94-26.1 145.84-25.98 146.74-25.85 147.69-25.45L147.69-25.45 147.69-22.1 146.89-21.6Q146.04-21.9 145.26-22 144.49-22.1 143.84-22.1L143.84-22.1Q140.89-22.1 139.04-20.58 137.19-19.05 135.99-16.45ZM158.29-29.7L158.29-29.7Q157.09-29.7 156.24-30.48 155.39-31.25 155.39-32.6L155.39-32.6Q155.39-33.95 156.24-34.73 157.09-35.5 158.29-35.5L158.29-35.5Q159.49-35.5 160.34-34.73 161.19-33.95 161.19-32.6L161.19-32.6Q161.19-31.25 160.34-30.48 159.49-29.7 158.29-29.7ZM161.69 0L156.49 0 156.99-4 156.99-22.1 151.79-22.1 151.79-25.5 161.69-25.5 161.19-21.5 161.19-4 161.69 0ZM192.38 0L187.18 0 187.68-4 187.68-16.75Q187.68-19.5 186.13-20.9 184.58-22.3 181.53-22.3L181.53-22.3Q179.13-22.3 177.43-21.6 175.73-20.9 174.66-20.03 173.58-19.15 173.03-18.55L173.03-18.55 173.03-21.45 178.43-25.55Q179.43-25.8 180.48-25.95 181.53-26.1 182.63-26.1L182.63-26.1Q185.03-26.1 187.13-25.28 189.23-24.45 190.56-22.45 191.88-20.45 191.88-16.9L191.88-16.9 191.88-4 192.38 0ZM174.98 0L169.78 0 170.28-4 170.28-21.6 169.78-25.5 173.78-25.5 174.48-22.55 174.48-4 174.98 0ZM208.58 11L208.58 11Q206.28 11 204.36 10.6 202.43 10.2 200.83 9.6L200.83 9.6 200.83 6 201.63 5.5Q202.83 6.25 204.56 6.85 206.28 7.45 208.68 7.4L208.68 7.4Q210.78 7.35 212.68 6.7 214.58 6.05 215.81 4.48 217.03 2.9 217.03 0.15L217.03 0.15 217.03-22.1 218.23-25.5 221.53-25.5 221.03-21.5 221.03 0.3Q221.03 3.4 219.96 5.48 218.88 7.55 217.11 8.75 215.33 9.95 213.11 10.48 210.88 11 208.58 11ZM209.68 0.6L209.68 0.6Q206.68 0.6 204.11-0.9 201.53-2.4 199.96-5.4 198.38-8.4 198.38-12.85L198.38-12.85Q198.38-17.25 199.88-20.18 201.38-23.1 203.93-24.6 206.48-26.1 209.58-26.1L209.58-26.1Q210.88-26.1 211.98-25.88 213.08-25.65 213.98-25.35L213.98-25.35 218.88-21.45 218.88-18.9Q217.98-19.95 216.75-20.75 215.53-21.55 213.96-22.03 212.38-22.5 210.43-22.5L210.43-22.5Q207.73-22.5 206-21.45 204.28-20.4 203.48-18.25 202.68-16.1 202.68-12.85L202.68-12.85Q202.68-8.05 204.56-5.53 206.43-3 210.83-3L210.83-3Q212.83-3 214.16-3.48 215.48-3.95 216.33-4.73 217.18-5.5 217.73-6.45L217.73-6.45 217.73-3.8 213.83 0Q212.83 0.25 211.78 0.43 210.73 0.6 209.68 0.6ZM243.73-7.15L243.73-7.15 243.73-29.1 243.48-32.6 248.18-32.6 247.93-29.1 247.93-7.25Q247.93-4.85 249-3.93 250.08-3 252.18-3L252.18-3Q253.18-3 253.9-3.2 254.63-3.4 255.28-3.75L255.28-3.75 256.07-3.25 256.07-0.15Q254.98 0.25 253.85 0.43 252.73 0.6 251.68 0.6L251.68 0.6Q249.68 0.6 247.85-0.08 246.03-0.75 244.88-2.43 243.73-4.1 243.73-7.15ZM241.93-22L239.43-21.75 239.43-25.5 242.63-25.5 245.83-24 249.03-25.5 255.58-25.5 255.58-21.75 253.08-22 241.93-22ZM284.67 0L279.47 0 279.97-4 279.97-16.55Q279.97-19.45 278.4-20.88 276.82-22.3 273.72-22.3L273.72-22.3Q271.32-22.3 269.57-21.58 267.82-20.85 266.67-19.9 265.52-18.95 264.87-18.2L264.87-18.2 264.87-21.35 270.27-25.6Q271.57-25.9 272.65-26 273.72-26.1 274.62-26.1L274.62-26.1Q278.22-26.1 280.3-24.95 282.37-23.8 283.27-21.73 284.17-19.65 284.17-16.95L284.17-16.95 284.17-4 284.67 0ZM266.97 0L261.77 0 262.27-4 262.27-32.4 261.77-36.4 266.97-36.4 266.47-32.4 266.47-4 266.97 0ZM290.67-12.8L290.67-12.8Q290.67-17.75 292.3-20.68 293.92-23.6 296.57-24.85 299.22-26.1 302.22-26.1L302.22-26.1Q305.67-26.1 308-24.73 310.32-23.35 311.5-20.83 312.67-18.3 312.67-14.8L312.67-14.8Q312.67-13.8 312.57-12.95 312.47-12.1 312.32-11.35L312.32-11.35 292.87-11.35 292.87-12.25 297.37-14.75 308.42-14.75Q308.42-17 307.95-18.75 307.47-20.5 306.12-21.5 304.77-22.5 302.17-22.5L302.17-22.5Q299.47-22.5 297.9-21.33 296.32-20.15 295.65-18.05 294.97-15.95 294.97-13.15L294.97-13.15Q294.97-9.8 295.72-7.75 296.47-5.7 297.72-4.7 298.97-3.7 300.47-3.35 301.97-3 303.47-3L303.47-3Q305.82-3 307.55-3.48 309.27-3.95 310.62-4.75L310.62-4.75 311.42-4.25 311.42-0.65Q309.87-0.1 308 0.25 306.12 0.6 303.92 0.6L303.92 0.6Q301.52 0.6 299.15 0.03 296.77-0.55 294.87-2 292.97-3.45 291.82-6.08 290.67-8.7 290.67-12.8ZM353.07 0L332.62 0 333.12-4 333.12-31 332.62-35 353.07-35 353.07-30.6 350.07-31.1 337.37-31.1 337.37-19.65 351.52-19.65 351.52-15.55 348.52-15.95 337.37-15.95 337.37-3.9 350.07-3.9 353.07-4.4 353.07 0ZM372.16 0L367.16 0 357.76-25.5 362.76-25.5 363.86-21.5 369.26-5.05 369.51-2.7 369.81-2.7 370.06-5.05 375.46-21.5 376.56-25.5 381.56-25.5 372.16 0ZM397.51 0.6L397.51 0.6Q394.51 0.6 391.76-0.7 389.01-2 387.29-4.95 385.56-7.9 385.56-12.75L385.56-12.75Q385.56-16.45 386.56-19 387.56-21.55 389.26-23.13 390.96-24.7 393.11-25.4 395.26-26.1 397.51-26.1L397.51-26.1Q399.76-26.1 401.91-25.4 404.06-24.7 405.76-23.13 407.46-21.55 408.46-19 409.46-16.45 409.46-12.75L409.46-12.75Q409.46-7.9 407.74-4.95 406.01-2 403.29-0.7 400.56 0.6 397.51 0.6ZM397.51-3L397.51-3Q401.06-3 403.11-5.2 405.16-7.4 405.16-12.85L405.16-12.85Q405.16-16.5 404.24-18.6 403.31-20.7 401.61-21.6 399.91-22.5 397.51-22.5L397.51-22.5Q395.11-22.5 393.41-21.6 391.71-20.7 390.79-18.6 389.86-16.5 389.86-12.85L389.86-12.85Q389.86-7.4 391.91-5.2 393.96-3 397.51-3ZM424.56-3.95L425.36-3.45 425.36 0Q424.86 0.25 424.21 0.43 423.56 0.6 422.51 0.6L422.51 0.6Q421.01 0.6 419.63 0.13 418.26-0.35 417.36-1.7 416.46-3.05 416.46-5.6L416.46-5.6 416.46-32.4 415.96-36.4 421.16-36.4 420.66-32.4 420.66-5.65Q420.66-4.55 421.18-3.98 421.71-3.4 422.86-3.4L422.86-3.4Q423.41-3.4 423.81-3.55 424.21-3.7 424.56-3.95L424.56-3.95ZM440.76 0.6L440.76 0.6Q439.21 0.6 437.53 0.2 435.86-0.2 434.43-1.18 433.01-2.15 432.13-3.88 431.26-5.6 431.26-8.3L431.26-8.3 431.26-21.5 430.76-25.5 435.96-25.5 435.46-21.5 435.46-8.95Q435.46-6.45 436.28-5.15 437.11-3.85 438.48-3.43 439.86-3 441.51-3L441.51-3Q444.71-3 446.46-3.98 448.21-4.95 449.56-6.35L449.56-6.35 449.56-3.55 445.01-0.05Q444.06 0.25 443.01 0.43 441.96 0.6 440.76 0.6ZM453.36 0L449.21 0 448.66-3.15 448.66-21.5 448.16-25.5 453.36-25.5 452.86-21.5 452.86-4 453.36 0ZM462.45-7.15L462.45-7.15 462.45-29.1 462.2-32.6 466.9-32.6 466.65-29.1 466.65-7.25Q466.65-4.85 467.73-3.93 468.8-3 470.9-3L470.9-3Q471.9-3 472.63-3.2 473.35-3.4 474-3.75L474-3.75 474.8-3.25 474.8-0.15Q473.7 0.25 472.58 0.43 471.45 0.6 470.4 0.6L470.4 0.6Q468.4 0.6 466.58-0.08 464.75-0.75 463.6-2.43 462.45-4.1 462.45-7.15ZM460.65-22L458.15-21.75 458.15-25.5 461.35-25.5 464.55-24 467.75-25.5 474.3-25.5 474.3-21.75 471.8-22 460.65-22ZM485.7-29.7L485.7-29.7Q484.5-29.7 483.65-30.48 482.8-31.25 482.8-32.6L482.8-32.6Q482.8-33.95 483.65-34.73 484.5-35.5 485.7-35.5L485.7-35.5Q486.9-35.5 487.75-34.73 488.6-33.95 488.6-32.6L488.6-32.6Q488.6-31.25 487.75-30.48 486.9-29.7 485.7-29.7ZM489.1 0L483.9 0 484.4-4 484.4-22.1 479.2-22.1 479.2-25.5 489.1-25.5 488.6-21.5 488.6-4 489.1 0ZM508.05 0.6L508.05 0.6Q505.05 0.6 502.3-0.7 499.55-2 497.82-4.95 496.1-7.9 496.1-12.75L496.1-12.75Q496.1-16.45 497.1-19 498.1-21.55 499.8-23.13 501.5-24.7 503.65-25.4 505.8-26.1 508.05-26.1L508.05-26.1Q510.3-26.1 512.45-25.4 514.6-24.7 516.3-23.13 518-21.55 519-19 520-16.45 520-12.75L520-12.75Q520-7.9 518.27-4.95 516.55-2 513.82-0.7 511.1 0.6 508.05 0.6ZM508.05-3L508.05-3Q511.6-3 513.65-5.2 515.7-7.4 515.7-12.85L515.7-12.85Q515.7-16.5 514.77-18.6 513.85-20.7 512.15-21.6 510.45-22.5 508.05-22.5L508.05-22.5Q505.65-22.5 503.95-21.6 502.25-20.7 501.32-18.6 500.4-16.5 500.4-12.85L500.4-12.85Q500.4-7.4 502.45-5.2 504.5-3 508.05-3ZM549.1 0L543.9 0 544.4-4 544.4-16.75Q544.4-19.5 542.85-20.9 541.3-22.3 538.25-22.3L538.25-22.3Q535.85-22.3 534.15-21.6 532.45-20.9 531.37-20.03 530.3-19.15 529.75-18.55L529.75-18.55 529.75-21.45 535.15-25.55Q536.15-25.8 537.2-25.95 538.25-26.1 539.35-26.1L539.35-26.1Q541.75-26.1 543.85-25.28 545.95-24.45 547.27-22.45 548.6-20.45 548.6-16.9L548.6-16.9 548.6-4 549.1 0ZM531.7 0L526.5 0 527-4 527-21.6 526.5-25.5 530.5-25.5 531.2-22.55 531.2-4 531.7 0ZM580.14 0.6L580.14 0.6Q577.14 0.6 574.39-0.7 571.64-2 569.91-4.95 568.19-7.9 568.19-12.75L568.19-12.75Q568.19-16.45 569.19-19 570.19-21.55 571.89-23.13 573.59-24.7 575.74-25.4 577.89-26.1 580.14-26.1L580.14-26.1Q582.39-26.1 584.54-25.4 586.69-24.7 588.39-23.13 590.09-21.55 591.09-19 592.09-16.45 592.09-12.75L592.09-12.75Q592.09-7.9 590.37-4.95 588.64-2 585.91-0.7 583.19 0.6 580.14 0.6ZM580.14-3L580.14-3Q583.69-3 585.74-5.2 587.79-7.4 587.79-12.85L587.79-12.85Q587.79-16.5 586.87-18.6 585.94-20.7 584.24-21.6 582.54-22.5 580.14-22.5L580.14-22.5Q577.74-22.5 576.04-21.6 574.34-20.7 573.41-18.6 572.49-16.5 572.49-12.85L572.49-12.85Q572.49-7.4 574.54-5.2 576.59-3 580.14-3ZM612.84-32.75L612.04-32.25Q611.24-33.05 610.36-33.27 609.49-33.5 608.74-33.5L608.74-33.5Q606.44-33.5 605.56-32.2 604.69-30.9 604.69-28.7L604.69-28.7 604.69-4 605.19 0 599.99 0 600.49-4 600.49-28.7Q600.49-32.85 602.49-34.98 604.49-37.1 608.44-37.1L608.44-37.1Q609.74-37.1 610.81-36.9 611.89-36.7 612.84-36.35L612.84-36.35 612.84-32.75ZM598.69-22L596.19-21.75 596.19-25.5 599.39-25.5 602.59-24 605.79-25.5 611.84-25.5 611.84-21.75 609.34-22 598.69-22ZM648.58 0.6L648.58 0.6Q639.53 0.6 634.78-4.13 630.03-8.85 630.03-17.6L630.03-17.6Q630.03-24 632.41-27.98 634.78-31.95 638.83-33.77 642.88-35.6 647.93-35.6L647.93-35.6Q651.08-35.6 653.58-34.98 656.08-34.35 658.33-33.1L658.33-33.1 658.33-29.2 657.33-28.7Q655.48-30.15 653.23-30.98 650.98-31.8 647.68-31.8L647.68-31.8Q643.83-31.8 640.86-30.4 637.88-29 636.21-25.85 634.53-22.7 634.53-17.4L634.53-17.4Q634.53-10.4 637.88-6.8 641.23-3.2 648.43-3.2L648.43-3.2Q651.33-3.2 653.63-3.88 655.93-4.55 657.98-6.35L657.98-6.35 659.38-5.35 659.38-1.5Q657.18-0.55 654.56 0.03 651.93 0.6 648.58 0.6ZM659.38-1.5L655.13-1.5 655.13-16.9 659.38-16.9 659.38-1.5ZM649.58-15.05L646.58-14.55 646.58-18.75 659.38-18.75 659.38-15.05 649.58-15.05ZM666.08-12.8L666.08-12.8Q666.08-17.75 667.7-20.68 669.33-23.6 671.98-24.85 674.63-26.1 677.63-26.1L677.63-26.1Q681.08-26.1 683.4-24.73 685.73-23.35 686.9-20.83 688.08-18.3 688.08-14.8L688.08-14.8Q688.08-13.8 687.98-12.95 687.88-12.1 687.73-11.35L687.73-11.35 668.28-11.35 668.28-12.25 672.78-14.75 683.83-14.75Q683.83-17 683.35-18.75 682.88-20.5 681.53-21.5 680.18-22.5 677.58-22.5L677.58-22.5Q674.88-22.5 673.3-21.33 671.73-20.15 671.05-18.05 670.38-15.95 670.38-13.15L670.38-13.15Q670.38-9.8 671.13-7.75 671.88-5.7 673.13-4.7 674.38-3.7 675.88-3.35 677.38-3 678.88-3L678.88-3Q681.23-3 682.95-3.48 684.68-3.95 686.03-4.75L686.03-4.75 686.83-4.25 686.83-0.65Q685.28-0.1 683.4 0.25 681.53 0.6 679.33 0.6L679.33 0.6Q676.93 0.6 674.55 0.03 672.18-0.55 670.28-2 668.38-3.45 667.23-6.08 666.08-8.7 666.08-12.8ZM716.83 0L711.63 0 712.13-4 712.13-16.75Q712.13-19.5 710.58-20.9 709.03-22.3 705.98-22.3L705.98-22.3Q703.58-22.3 701.88-21.6 700.18-20.9 699.1-20.03 698.03-19.15 697.48-18.55L697.48-18.55 697.48-21.45 702.88-25.55Q703.88-25.8 704.93-25.95 705.98-26.1 707.08-26.1L707.08-26.1Q709.48-26.1 711.58-25.28 713.68-24.45 715-22.45 716.33-20.45 716.33-16.9L716.33-16.9 716.33-4 716.83 0ZM699.43 0L694.23 0 694.73-4 694.73-21.6 694.23-25.5 698.23-25.5 698.93-22.55 698.93-4 699.43 0ZM734.07 0.6L734.07 0.6Q730.87 0.6 728.32-0.95 725.77-2.5 724.3-5.5 722.82-8.5 722.82-12.75L722.82-12.75Q722.82-17.25 724.37-20.23 725.92-23.2 728.45-24.65 730.97-26.1 733.87-26.1L733.87-26.1Q735.32-26.1 736.47-25.83 737.62-25.55 738.42-25.25L738.42-25.25 743.32-21.9 743.32-18.9Q742.42-19.95 741.25-20.75 740.07-21.55 738.57-22.03 737.07-22.5 735.07-22.5L735.07-22.5Q732.27-22.5 730.52-21.45 728.77-20.4 727.95-18.23 727.12-16.05 727.12-12.75L727.12-12.75Q727.12-7.9 729-5.45 730.87-3 735.17-3L735.17-3Q737.22-3 738.57-3.5 739.92-4 740.8-4.78 741.67-5.55 742.17-6.45L742.17-6.45 742.57-3.45 738.27 0Q737.32 0.25 736.27 0.43 735.22 0.6 734.07 0.6ZM746.22 0L742.27 0 741.52-2.6 741.52-32.4 741.02-36.4 746.22-36.4 745.72-32.4 745.72-4 746.22 0ZM752.22-12.8L752.22-12.8Q752.22-17.75 753.85-20.68 755.47-23.6 758.12-24.85 760.77-26.1 763.77-26.1L763.77-26.1Q767.22-26.1 769.55-24.73 771.87-23.35 773.05-20.83 774.22-18.3 774.22-14.8L774.22-14.8Q774.22-13.8 774.12-12.95 774.02-12.1 773.87-11.35L773.87-11.35 754.42-11.35 754.42-12.25 758.92-14.75 769.97-14.75Q769.97-17 769.5-18.75 769.02-20.5 767.67-21.5 766.32-22.5 763.72-22.5L763.72-22.5Q761.02-22.5 759.45-21.33 757.87-20.15 757.2-18.05 756.52-15.95 756.52-13.15L756.52-13.15Q756.52-9.8 757.27-7.75 758.02-5.7 759.27-4.7 760.52-3.7 762.02-3.35 763.52-3 765.02-3L765.02-3Q767.37-3 769.1-3.48 770.82-3.95 772.17-4.75L772.17-4.75 772.97-4.25 772.97-0.65Q771.42-0.1 769.55 0.25 767.67 0.6 765.47 0.6L765.47 0.6Q763.07 0.6 760.7 0.03 758.32-0.55 756.42-2 754.52-3.45 753.37-6.08 752.22-8.7 752.22-12.8ZM785.57 0L780.37 0 780.87-4 780.87-21.5 780.37-25.5 783.72-25.5 784.52-22.55 785.07-22.55 785.07-4 785.57 0ZM784.02-16.45L784.02-16.45 784.02-21.7 788.42-25.45Q790.22-26.1 792.12-26.1L792.12-26.1Q792.97-26.1 793.87-25.98 794.77-25.85 795.72-25.45L795.72-25.45 795.72-22.1 794.92-21.6Q794.07-21.9 793.29-22 792.52-22.1 791.87-22.1L791.87-22.1Q788.92-22.1 787.07-20.58 785.22-19.05 784.02-16.45ZM834.86 0L830.91 0 830.16-2.65 830.16-16.25Q830.16-18.25 829.61-19.63 829.06-21 827.46-21.75 825.86-22.5 822.71-22.5L822.71-22.5Q820.86-22.5 819.29-22.15 817.71-21.8 816.26-20.85L816.26-20.85 815.46-21.35 815.46-24.95Q817.66-25.65 819.59-25.88 821.51-26.1 823.16-26.1L823.16-26.1Q827.51-26.1 829.94-24.95 832.36-23.8 833.36-21.58 834.36-19.35 834.36-16.1L834.36-16.1 834.36-4 834.86 0ZM822.46 0.6L822.46 0.6Q820.26 0.6 818.11-0.13 815.96-0.85 814.54-2.63 813.11-4.4 813.11-7.5L813.11-7.5Q813.11-9.9 814.01-11.5 814.91-13.1 816.44-14 817.96-14.9 819.86-15.28 821.76-15.65 823.76-15.65L823.76-15.65Q824.96-15.65 825.99-15.55 827.01-15.45 828.01-15.2L828.01-15.2 830.61-13.35 830.61-11.05Q829.31-11.75 827.84-12.03 826.36-12.3 824.46-12.3L824.46-12.3Q820.96-12.3 819.14-11.28 817.31-10.25 817.31-7.45L817.31-7.45Q817.31-5.15 818.66-4.03 820.01-2.9 823.01-2.9L823.01-2.9Q826.11-2.9 827.94-3.9 829.76-4.9 830.76-6.3L830.76-6.3 831.76-4.05 826.96 0Q825.96 0.25 824.81 0.43 823.66 0.6 822.46 0.6ZM864.06 0L858.86 0 859.36-4 859.36-16.75Q859.36-19.5 857.81-20.9 856.26-22.3 853.21-22.3L853.21-22.3Q850.81-22.3 849.11-21.6 847.41-20.9 846.34-20.03 845.26-19.15 844.71-18.55L844.71-18.55 844.71-21.45 850.11-25.55Q851.11-25.8 852.16-25.95 853.21-26.1 854.31-26.1L854.31-26.1Q856.71-26.1 858.81-25.28 860.91-24.45 862.24-22.45 863.56-20.45 863.56-16.9L863.56-16.9 863.56-4 864.06 0ZM846.66 0L841.46 0 841.96-4 841.96-21.6 841.46-25.5 845.46-25.5 846.16-22.55 846.16-4 846.66 0ZM881.31 0.6L881.31 0.6Q878.11 0.6 875.56-0.95 873.01-2.5 871.53-5.5 870.06-8.5 870.06-12.75L870.06-12.75Q870.06-17.25 871.61-20.23 873.16-23.2 875.68-24.65 878.21-26.1 881.11-26.1L881.11-26.1Q882.56-26.1 883.71-25.83 884.86-25.55 885.66-25.25L885.66-25.25 890.56-21.9 890.56-18.9Q889.66-19.95 888.48-20.75 887.31-21.55 885.81-22.03 884.31-22.5 882.31-22.5L882.31-22.5Q879.51-22.5 877.76-21.45 876.01-20.4 875.18-18.23 874.36-16.05 874.36-12.75L874.36-12.75Q874.36-7.9 876.23-5.45 878.11-3 882.41-3L882.41-3Q884.46-3 885.81-3.5 887.16-4 888.03-4.78 888.91-5.55 889.41-6.45L889.41-6.45 889.81-3.45 885.51 0Q884.56 0.25 883.51 0.43 882.46 0.6 881.31 0.6ZM893.46 0L889.51 0 888.76-2.6 888.76-32.4 888.26-36.4 893.46-36.4 892.96-32.4 892.96-4 893.46 0ZM924.95 0L914.35 0 914.85-4 914.85-31 914.35-35 924.95-35Q926.85-35 928.9-34.77 930.95-34.55 932.98-33.95 935-33.35 936.8-32.13 938.6-30.9 940-28.95 941.4-27 942.2-24.13 943-21.25 943-17.25L943-17.25Q943-12.65 941.95-9.55 940.9-6.45 939.08-4.55 937.25-2.65 934.95-1.68 932.65-0.7 930.08-0.35 927.5 0 924.95 0L924.95 0ZM919.1-31.1L919.1-3.9 926-3.9Q928.95-3.9 931.28-4.48 933.6-5.05 935.2-6.5 936.8-7.95 937.65-10.58 938.5-13.2 938.5-17.3L938.5-17.3Q938.5-21.75 937.55-24.48 936.6-27.2 934.88-28.63 933.15-30.05 930.9-30.58 928.65-31.1 926-31.1L926-31.1 919.1-31.1ZM948.8-12.8L948.8-12.8Q948.8-17.75 950.43-20.68 952.05-23.6 954.7-24.85 957.35-26.1 960.35-26.1L960.35-26.1Q963.8-26.1 966.13-24.73 968.45-23.35 969.63-20.83 970.8-18.3 970.8-14.8L970.8-14.8Q970.8-13.8 970.7-12.95 970.6-12.1 970.45-11.35L970.45-11.35 951-11.35 951-12.25 955.5-14.75 966.55-14.75Q966.55-17 966.08-18.75 965.6-20.5 964.25-21.5 962.9-22.5 960.3-22.5L960.3-22.5Q957.6-22.5 956.03-21.33 954.45-20.15 953.78-18.05 953.1-15.95 953.1-13.15L953.1-13.15Q953.1-9.8 953.85-7.75 954.6-5.7 955.85-4.7 957.1-3.7 958.6-3.35 960.1-3 961.6-3L961.6-3Q963.95-3 965.68-3.48 967.4-3.95 968.75-4.75L968.75-4.75 969.55-4.25 969.55-0.65Q968-0.1 966.13 0.25 964.25 0.6 962.05 0.6L962.05 0.6Q959.65 0.6 957.28 0.03 954.9-0.55 953-2 951.1-3.45 949.95-6.08 948.8-8.7 948.8-12.8ZM988.85 0L983.85 0 974.45-25.5 979.45-25.5 980.55-21.5 985.95-5.05 986.2-2.7 986.5-2.7 986.75-5.05 992.15-21.5 993.25-25.5 998.25-25.5 988.85 0ZM1002.25-12.8L1002.25-12.8Q1002.25-17.75 1003.87-20.68 1005.5-23.6 1008.15-24.85 1010.8-26.1 1013.8-26.1L1013.8-26.1Q1017.25-26.1 1019.57-24.73 1021.9-23.35 1023.07-20.83 1024.25-18.3 1024.25-14.8L1024.25-14.8Q1024.25-13.8 1024.15-12.95 1024.05-12.1 1023.9-11.35L1023.9-11.35 1004.45-11.35 1004.45-12.25 1008.95-14.75 1020-14.75Q1020-17 1019.52-18.75 1019.05-20.5 1017.7-21.5 1016.35-22.5 1013.75-22.5L1013.75-22.5Q1011.05-22.5 1009.47-21.33 1007.9-20.15 1007.22-18.05 1006.55-15.95 1006.55-13.15L1006.55-13.15Q1006.55-9.8 1007.3-7.75 1008.05-5.7 1009.3-4.7 1010.55-3.7 1012.05-3.35 1013.55-3 1015.05-3L1015.05-3Q1017.4-3 1019.12-3.48 1020.85-3.95 1022.2-4.75L1022.2-4.75 1023-4.25 1023-0.65Q1021.45-0.1 1019.57 0.25 1017.7 0.6 1015.5 0.6L1015.5 0.6Q1013.1 0.6 1010.72 0.03 1008.35-0.55 1006.45-2 1004.55-3.45 1003.4-6.08 1002.25-8.7 1002.25-12.8ZM1038.99-3.95L1039.79-3.45 1039.79 0Q1039.29 0.25 1038.64 0.43 1037.99 0.6 1036.94 0.6L1036.94 0.6Q1035.44 0.6 1034.07 0.13 1032.69-0.35 1031.79-1.7 1030.89-3.05 1030.89-5.6L1030.89-5.6 1030.89-32.4 1030.39-36.4 1035.59-36.4 1035.09-32.4 1035.09-5.65Q1035.09-4.55 1035.62-3.98 1036.14-3.4 1037.29-3.4L1037.29-3.4Q1037.84-3.4 1038.24-3.55 1038.64-3.7 1038.99-3.95L1038.99-3.95ZM1056.44 0.6L1056.44 0.6Q1053.44 0.6 1050.69-0.7 1047.94-2 1046.22-4.95 1044.49-7.9 1044.49-12.75L1044.49-12.75Q1044.49-16.45 1045.49-19 1046.49-21.55 1048.19-23.13 1049.89-24.7 1052.04-25.4 1054.19-26.1 1056.44-26.1L1056.44-26.1Q1058.69-26.1 1060.84-25.4 1062.99-24.7 1064.69-23.13 1066.39-21.55 1067.39-19 1068.39-16.45 1068.39-12.75L1068.39-12.75Q1068.39-7.9 1066.67-4.95 1064.94-2 1062.22-0.7 1059.49 0.6 1056.44 0.6ZM1056.44-3L1056.44-3Q1059.99-3 1062.04-5.2 1064.09-7.4 1064.09-12.85L1064.09-12.85Q1064.09-16.5 1063.17-18.6 1062.24-20.7 1060.54-21.6 1058.84-22.5 1056.44-22.5L1056.44-22.5Q1054.04-22.5 1052.34-21.6 1050.64-20.7 1049.72-18.6 1048.79-16.5 1048.79-12.85L1048.79-12.85Q1048.79-7.4 1050.84-5.2 1052.89-3 1056.44-3ZM1086.49 0.6L1086.49 0.6Q1085.24 0.6 1084.31 0.45 1083.39 0.3 1082.79 0.1L1082.79 0.1 1077.84-4.05 1077.84-7.1Q1079.04-5.5 1080.29-4.6 1081.54-3.7 1082.94-3.35 1084.34-3 1085.89-3L1085.89-3Q1090.54-3 1092.26-5.5 1093.99-8 1093.99-12.5L1093.99-12.5Q1093.99-15.75 1093.21-17.98 1092.44-20.2 1090.71-21.35 1088.99-22.5 1086.14-22.5L1086.14-22.5Q1084.09-22.5 1082.51-21.95 1080.94-21.4 1079.76-20.48 1078.59-19.55 1077.64-18.45L1077.64-18.45 1077.64-21.65 1082.84-25.4Q1083.74-25.7 1084.81-25.9 1085.89-26.1 1087.04-26.1L1087.04-26.1Q1089.84-26.1 1092.41-24.73 1094.99-23.35 1096.64-20.4 1098.29-17.45 1098.29-12.75L1098.29-12.75Q1098.29-8.9 1096.99-5.88 1095.69-2.85 1093.09-1.13 1090.49 0.6 1086.49 0.6ZM1080.09 11L1074.89 11 1075.39 7 1075.39-21.5 1074.89-25.5 1078.59-25.5 1079.59-20.9 1079.59 7 1080.09 11ZM1141.99 0L1136.79 0 1137.29-4 1137.29-16.55Q1137.29-19.45 1135.69-20.88 1134.09-22.3 1131.49-22.3L1131.49-22.3Q1129.19-22.3 1127.56-21.43 1125.94-20.55 1124.89-19.45 1123.84-18.35 1123.34-17.7L1123.34-17.7 1123.34-21.35 1128.54-25.6Q1129.64-25.9 1130.61-26 1131.59-26.1 1132.39-26.1L1132.39-26.1Q1135.74-26.1 1137.74-24.98 1139.74-23.85 1140.61-22 1141.49-20.15 1141.49-17.95L1141.49-17.95 1141.49-4 1141.99 0ZM1109.99 0L1104.79 0 1105.29-4 1105.29-21.5 1104.79-25.5 1108.54-25.5 1109.49-20.1 1109.49-4 1109.99 0ZM1125.99 0L1120.79 0 1121.29-4 1121.29-16.55Q1121.29-19.45 1119.74-20.88 1118.19-22.3 1115.59-22.3L1115.59-22.3Q1113.34-22.3 1111.66-21.45 1109.99-20.6 1108.94-19.55 1107.89-18.5 1107.39-17.9L1107.39-17.9 1107.39-21.35 1112.59-25.6Q1113.94-25.9 1115.01-26 1116.09-26.1 1116.84-26.1L1116.84-26.1Q1119.99-26.1 1121.89-24.98 1123.79-23.85 1124.64-22 1125.49-20.15 1125.49-17.95L1125.49-17.95 1125.49-4 1125.99 0ZM1147.98-12.8L1147.98-12.8Q1147.98-17.75 1149.61-20.68 1151.23-23.6 1153.88-24.85 1156.53-26.1 1159.53-26.1L1159.53-26.1Q1162.98-26.1 1165.31-24.73 1167.63-23.35 1168.81-20.83 1169.98-18.3 1169.98-14.8L1169.98-14.8Q1169.98-13.8 1169.88-12.95 1169.78-12.1 1169.63-11.35L1169.63-11.35 1150.18-11.35 1150.18-12.25 1154.68-14.75 1165.73-14.75Q1165.73-17 1165.26-18.75 1164.78-20.5 1163.43-21.5 1162.08-22.5 1159.48-22.5L1159.48-22.5Q1156.78-22.5 1155.21-21.33 1153.63-20.15 1152.96-18.05 1152.28-15.95 1152.28-13.15L1152.28-13.15Q1152.28-9.8 1153.03-7.75 1153.78-5.7 1155.03-4.7 1156.28-3.7 1157.78-3.35 1159.28-3 1160.78-3L1160.78-3Q1163.13-3 1164.86-3.48 1166.58-3.95 1167.93-4.75L1167.93-4.75 1168.73-4.25 1168.73-0.65Q1167.18-0.1 1165.31 0.25 1163.43 0.6 1161.23 0.6L1161.23 0.6Q1158.83 0.6 1156.46 0.03 1154.08-0.55 1152.18-2 1150.28-3.45 1149.13-6.08 1147.98-8.7 1147.98-12.8ZM1198.73 0L1193.53 0 1194.03-4 1194.03-16.75Q1194.03-19.5 1192.48-20.9 1190.93-22.3 1187.88-22.3L1187.88-22.3Q1185.48-22.3 1183.78-21.6 1182.08-20.9 1181.01-20.03 1179.93-19.15 1179.38-18.55L1179.38-18.55 1179.38-21.45 1184.78-25.55Q1185.78-25.8 1186.83-25.95 1187.88-26.1 1188.98-26.1L1188.98-26.1Q1191.38-26.1 1193.48-25.28 1195.58-24.45 1196.91-22.45 1198.23-20.45 1198.23-16.9L1198.23-16.9 1198.23-4 1198.73 0ZM1181.33 0L1176.13 0 1176.63-4 1176.63-21.6 1176.13-25.5 1180.13-25.5 1180.83-22.55 1180.83-4 1181.33 0ZM1207.83-7.15L1207.83-7.15 1207.83-29.1 1207.58-32.6 1212.28-32.6 1212.03-29.1 1212.03-7.25Q1212.03-4.85 1213.1-3.93 1214.18-3 1216.28-3L1216.28-3Q1217.28-3 1218-3.2 1218.73-3.4 1219.38-3.75L1219.38-3.75 1220.18-3.25 1220.18-0.15Q1219.08 0.25 1217.95 0.43 1216.83 0.6 1215.78 0.6L1215.78 0.6Q1213.78 0.6 1211.95-0.08 1210.13-0.75 1208.98-2.43 1207.83-4.1 1207.83-7.15ZM1206.03-22L1203.53-21.75 1203.53-25.5 1206.73-25.5 1209.93-24 1213.13-25.5 1219.68-25.5 1219.68-21.75 1217.18-22 1206.03-22Z" opacity="1" transform="matrix(1,0,0,1,0,0)" fill="#ffffff" class="slogan-text-1" data-fill-palette-color="quaternary" id="text-1"></path></svg></g></svg></g></svg></g></svg></g><g></g></svg></g><defs></defs></svg><rect width="305.39737207016066" height="157.06520003420383" fill="none" stroke="none" visibility="hidden"></rect></g></svg></g></svg>